<svg xmlns="http://www.w3.org/2000/svg" width="270" height="100" viewBox="0 0 270 100">
  <g id="Group_20" data-name="Group 20" transform="translate(-319 142)">
    <g id="Group_19" data-name="Group 19" transform="translate(0 -5)">
      <path id="Path_145" data-name="Path 145" d="M59,72.419c-.143.02-.211-.092-.292-.173Q54.892,68.423,51.08,64.6a1.21,1.21,0,0,1-.1-.138c.13-.127.288-.068.424-.068q3.592-.01,7.183-.012c.2,0,.407-.013.61-.02a17.454,17.454,0,0,0,.058-2.263c.009-.219-.007-.439.009-.657.691-.77,1.432-1.493,2.09-2.3a36.5,36.5,0,0,0,5.718-9.657,2.117,2.117,0,0,1,.3-.588c.065-.079.143-.166.253-.144.135.028.092.156.1.249s0,.2,0,.306q0,11.245,0,22.49c0,.574,0,.575-.573.575q-3.8,0-7.6,0A1.231,1.231,0,0,0,59,72.419Z" transform="translate(319 -130)" fill="#fff"/>
      <path id="Path_146" data-name="Path 146" d="M8.577,64.671a1.771,1.771,0,0,0,.557.034q3.162.007,6.325.009h.5c.05.186-.085.239-.159.313q-3.66,3.7-7.32,7.395a.9.9,0,0,1-.712.3c-2.414-.029-4.828-.042-7.242-.063-.425,0-.431-.009-.432-.41q-.01-4.9-.014-9.794a1.811,1.811,0,0,1,.022-.2A1.533,1.533,0,0,1,.061,61.7q0-6.2.005-12.393c0-.2-.151-.518.137-.571.272-.05.353.279.441.487.575,1.363,1.169,2.717,1.871,4.021a35.237,35.237,0,0,0,4.845,6.914,8.153,8.153,0,0,1,1.165,1.33C8.559,62.547,8.465,63.611,8.577,64.671Z" transform="translate(319 -130)" fill="#fff"/>
      <path id="Path_147" data-name="Path 147" d="M8.577,64.671c-.159-.132-.095-.314-.1-.474-.009-.93-.009-1.86-.012-2.79a1.166,1.166,0,0,1-.154-.58c.005-1.1-.02-2.194.013-3.29-.019-1.089-.026-2.178,0-3.267-.018-1.078-.025-2.157,0-3.236.005-.378-.019-.756-.006-1.134.026-.358-.014-.717.01-1.076a6.183,6.183,0,0,0-.388-2.519A26.48,26.48,0,0,1,6.11,34.766a27.69,27.69,0,0,1,3.2-11.4,28.125,28.125,0,0,1,4.6-6.394,27.4,27.4,0,0,1,6.272-4.85,27.547,27.547,0,0,1,15.579-3.55,27.751,27.751,0,0,1,17.451,7.706,28.036,28.036,0,0,1,8.568,20.595,27.53,27.53,0,0,1-1.891,9.552,1.592,1.592,0,0,1-.265.492c-.1.114-.217.244-.366.048,0-.034,0-.069,0-.1-.233-1.618.358-3.109.7-4.639A26.487,26.487,0,0,0,59.748,29.6a12.027,12.027,0,0,1-.575-2.791,18.191,18.191,0,0,1-1.618-1.1A16.244,16.244,0,0,1,56.3,23.5a28.236,28.236,0,0,0-3.447-4.662A24.986,24.986,0,0,0,45.9,13.486a25.371,25.371,0,0,0-8.256-2.678,12.357,12.357,0,0,1-2.557-.42,7.583,7.583,0,0,1-.967-.626.355.355,0,0,0-.454,0c-.358.246-.726.477-1.09.714a13.091,13.091,0,0,1-2.849.506,26.082,26.082,0,0,0-6.7,2.075A25,25,0,0,0,17.333,16.7,26.1,26.1,0,0,0,11.548,23.7a8.094,8.094,0,0,1-1.134,1.865c-.587.337-1.064.828-1.644,1.175a.383.383,0,0,0-.208.377c.008.136,0,.272,0,.408q.009,18.192.018,36.384C8.581,64.161,8.579,64.416,8.577,64.671Z" transform="translate(319 -130)" fill="#fff"/>
      <path id="Path_148" data-name="Path 148" d="M8.469,51q0,1.635,0,3.27c-.341.124-.452-.16-.584-.356a32.109,32.109,0,0,1-3.3-6.371A31.424,31.424,0,0,1,5.643,22.767a31.206,31.206,0,0,1,3.841-6.121c.158-.2.342-.389.289-.678a2.56,2.56,0,0,1,.574-.416q4.684-3.133,9.371-6.259a.949.949,0,0,1,.4-.22c.2.165.357-.01.51-.082A30.412,30.412,0,0,1,32.511,6.015a31.021,31.021,0,0,1,6.141.316,29.566,29.566,0,0,1,7.329,2.116,4.984,4.984,0,0,0,1.391.48c.958.542,1.847,1.192,2.772,1.785,1.154.74,2.295,1.5,3.439,2.257.112.074.213.163.319.245a2.085,2.085,0,0,0,.58.765,33.138,33.138,0,0,1,4.532,5.231,30.853,30.853,0,0,1,4.16,8.928,30.368,30.368,0,0,1,1.079,7.034,29.945,29.945,0,0,1-2.492,13.355,28.433,28.433,0,0,1-1.85,3.574c-.265.434-.328.472-.653.37-.008-.433,0-.865,0-1.3a29.022,29.022,0,0,0,3.97-16.656,28.568,28.568,0,0,0-3.012-11.252A29.336,29.336,0,0,0,41.175,7.887a30,30,0,0,0-9.206-.823,27.556,27.556,0,0,0-8.009,1.661,28.7,28.7,0,0,0-8,4.41A29.343,29.343,0,0,0,6.445,46.716,28.016,28.016,0,0,0,8.469,51Z" transform="translate(319 -130)" fill="#fff"/>
      <path id="Path_149" data-name="Path 149" d="M59,72.419c.157-.153.355-.09.535-.09q3.723-.006,7.447,0c.119,0,.238-.007.357,0,.235.015.351-.082.335-.325-.006-.085,0-.17,0-.255q0-11.247,0-22.494V48.81c-.243.084-.276.286-.341.44-.313.732-.578,1.486-.92,2.2-.422.886-.885,1.754-1.362,2.612A33.3,33.3,0,0,1,63.1,57.1c-.626.885-1.318,1.716-1.984,2.569-.42.537-.974.946-1.355,1.514a.641.641,0,0,1-.442.229c-.115-.152-.059-.328-.059-.491-.005-1.66,0-3.321,0-4.98a.752.752,0,0,1,.207-.453A31.121,31.121,0,0,0,64.58,45.24a31.892,31.892,0,0,0,1.231-7.926,32.343,32.343,0,0,0-.463-6.426,31.906,31.906,0,0,0-5.216-12.775,1.663,1.663,0,0,1-.235-.392c-.073-.223-.068-.408.239-.417.754.506,1.485,1.045,2.287,1.479.4.218.771.5,1.155.748,1.251.819,2.5,1.648,3.758,2.451a.838.838,0,0,1,.45.811q-.019,16.195-.008,32.39,0,8.288,0,16.577c0,.136-.007.272,0,.408.011.19-.063.288-.263.274-.068,0-.136,0-.2,0H59.3C59.2,72.441,59.1,72.426,59,72.419Z" transform="translate(319 -130)" fill="#fff"/>
      <path id="Path_150" data-name="Path 150" d="M37.751,46.267c.145-.15.206-.27,0-.448-.582-.5-1.143-1.016-1.708-1.531a2.1,2.1,0,0,1-.472-.486c.716-.72,1.435-1.437,2.146-2.163.167-.171.261-.052.377.049l2.967,2.569q6.455,5.588,12.909,11.176c.009.008,0,.03.01.083l-2.05,1.789q-2.42,2.111-4.841,4.22c-.076.066-.162.12-.243.18a.635.635,0,0,1-.758-.049q-3.279-1.863-6.539-3.76c-2.307-1.338-4.623-2.662-6.923-4.012a2.167,2.167,0,0,1-.218-.131c-.168-.128-.443-.2-.372-.481s.329-.253.549-.279c1.36.061,2.705.265,4.055.414,2.973.327,5.945.659,8.914,1.011.068.008.135.018.2.031a1.247,1.247,0,0,0,.429.068q1.155.1,2.3.24a24.075,24.075,0,0,0,3.807.317,2.8,2.8,0,0,0-.918-.642c-2.41-1.365-4.811-2.745-7.223-4.106-1.894-1.069-3.775-2.161-5.674-3.22a3.215,3.215,0,0,1-.555-.36C37.779,46.621,37.639,46.487,37.751,46.267Z" transform="translate(319 -130)" fill="#082c69"/>
      <path id="Path_151" data-name="Path 151" d="M9.773,15.968c.285.06.264.2.114.395q-.515.659-1.02,1.326a28.047,28.047,0,0,0-2.5,3.941,31.14,31.14,0,0,0-2.1,4.848A24.18,24.18,0,0,0,3.374,29.8c-.111.648-.243,1.292-.37,1.937-.065.331-.077.67-.124,1a29.312,29.312,0,0,0-.225,4.611c.012.678.112,1.344.183,2.015.061.571.146,1.137.216,1.706a25.813,25.813,0,0,0,.676,3.372A32.42,32.42,0,0,0,5.57,49.5a36.374,36.374,0,0,0,2.342,4.215c.135.219.227.513.555.552q0,1.631,0,3.262c-.306.136-.435-.115-.574-.287A32.57,32.57,0,0,1,2.93,48.722,34.6,34.6,0,0,1,1,41.859c-.21-1.208-.316-2.426-.414-3.645a30.952,30.952,0,0,1,.788-9.206,31.693,31.693,0,0,1,3.546-9.143,5.393,5.393,0,0,0,.384-.938q2.183-1.468,4.367-2.935A.3.3,0,0,1,9.773,15.968Z" transform="translate(319 -130)" fill="#fff"/>
      <path id="Path_152" data-name="Path 152" d="M5.308,18.927a.691.691,0,0,1-.087.715,19.858,19.858,0,0,0-1.54,2.918c-.418.959-.817,1.928-1.156,2.924-.35,1.028-.633,2.07-.91,3.116a24.79,24.79,0,0,0-.589,3.028c-.1.77-.151,1.545-.22,2.318A19.768,19.768,0,0,0,.63,36.877,16.947,16.947,0,0,0,.8,38.74c.08.465.052.941.108,1.414q.175,1.485.471,2.946a31.618,31.618,0,0,0,1.167,4.2,31.982,31.982,0,0,0,2.449,5.412c.482.837.967,1.673,1.515,2.467.489.709,1.027,1.384,1.55,2.069a.554.554,0,0,0,.407.278q0,1.939,0,3.879a2.221,2.221,0,0,1-.812-.683c-.7-.824-1.443-1.614-2.089-2.484q-1.076-1.448-2.049-2.967A28.038,28.038,0,0,1,2.047,52.66c-.4-.8-.792-1.611-1.131-2.445A8.409,8.409,0,0,0,.263,48.79c-.206.082-.142.237-.143.355-.006.969,0,1.938,0,2.907q0,4.769,0,9.538c0,.221-.013.441-.021.662a1.116,1.116,0,0,1-.047-.5Q.028,42.344,0,22.939a.806.806,0,0,1,.42-.775C2.058,21.1,3.68,20.008,5.308,18.927Z" transform="translate(319 -130)" fill="#fff"/>
      <path id="Path_153" data-name="Path 153" d="M60.135,17.3c-.287.128-.192.317-.069.5.463.668.914,1.343,1.327,2.044a33.047,33.047,0,0,1,2.4,4.879c.361.933.624,1.9.944,2.843a16.84,16.84,0,0,1,.613,2.454c.144.807.327,1.617.406,2.444a9.107,9.107,0,0,0,.159,1.815,1.216,1.216,0,0,1,.018.3A8.1,8.1,0,0,0,66.022,36a1.778,1.778,0,0,1-.047.958.607.607,0,0,0-.034.25,14.943,14.943,0,0,1-.124,2.281,12.888,12.888,0,0,1-.255,2.006c-.194.871-.294,1.762-.528,2.63-.162.6-.34,1.2-.523,1.8a27.258,27.258,0,0,1-1.633,4.216,28.557,28.557,0,0,1-2.787,4.724,3.74,3.74,0,0,1-.776.931,17.4,17.4,0,0,1,0-3.271c.3-.024.364-.3.474-.485.45-.777.919-1.544,1.3-2.362a32.71,32.71,0,0,0,2.332-6.647c.237-1.074.415-2.155.55-3.239a8.907,8.907,0,0,0,.126-1.768c-.044-.582.175-1.144.1-1.721-.1-.839-.117-1.685-.169-2.525-.047-.762-.168-1.511-.254-2.264a20.691,20.691,0,0,0-.564-2.724,34.626,34.626,0,0,0-1.458-4.275,27.426,27.426,0,0,0-1.6-3.233A38.412,38.412,0,0,0,57.758,17.7c-.237-.329-.534-.61-.792-.925-.861-1.053-1.87-1.966-2.822-2.934-.072-.073-.139-.151-.216-.216-.156-.13-.1-.267-.026-.408.913.518,1.762,1.135,2.643,1.7,1.138.733,2.267,1.48,3.4,2.224A1.84,1.84,0,0,1,60.135,17.3Z" transform="translate(319 -130)" fill="#fff"/>
      <path id="Path_154" data-name="Path 154" d="M35.086,10.389a1.907,1.907,0,0,1,.8.076,15.591,15.591,0,0,0,1.81.207,26.381,26.381,0,0,1,6.189,1.74c.588.259,1.193.485,1.757.788a21.92,21.92,0,0,1,2.5,1.465c.467.337.974.616,1.418.986.506.422,1.024.831,1.528,1.255a12.7,12.7,0,0,1,1.131,1.022A31.632,31.632,0,0,1,56.1,22.872c.4.648.729,1.342,1.069,2.026.133.268.4.474.387.813-1.019-.613-1.973-1.323-2.958-1.988-2.04-1.378-4.066-2.778-6.1-4.165q-6.589-4.49-13.18-8.976A2.911,2.911,0,0,1,35.086,10.389Z" transform="translate(319 -130)" fill="#fff"/>
      <path id="Path_155" data-name="Path 155" d="M10.414,25.561a10.728,10.728,0,0,1,.7-1.35,21.251,21.251,0,0,1,1.494-2.477,28.145,28.145,0,0,1,2.252-2.805c.391-.422.751-.875,1.179-1.261a26.724,26.724,0,0,1,6.969-4.75,27.972,27.972,0,0,1,3.849-1.431,22.988,22.988,0,0,1,2.368-.544,9.546,9.546,0,0,1,1.85-.271,2.684,2.684,0,0,0,.8-.124,2.248,2.248,0,0,1,.7-.067,1.628,1.628,0,0,1-.482.369q-4.765,3.24-9.534,6.474-5.794,3.948-11.578,7.91A1.5,1.5,0,0,1,10.414,25.561Z" transform="translate(319 -130)" fill="#fff"/>
      <path id="Path_156" data-name="Path 156" d="M32.466,53.134a.664.664,0,0,0-.2.022c-.211.094-.229.184-.05.312.233.167.477.322.725.466,1.6.922,3.2,1.835,4.791,2.759,1.155.669,2.3,1.358,3.457,2.025,1.069.616,2.152,1.209,3.222,1.825q.814.468,1.627.937a1.273,1.273,0,0,0,.808.226,9.243,9.243,0,0,1-1.108.945c-.4.385-.833.729-1.252,1.09-.278.181-.486-.025-.7-.143-2.847-1.6-5.658-3.26-8.49-4.883-2.316-1.328-4.622-2.674-6.939-4-.163-.093-.338-.16-.5-.248-.805-.645-1.579-1.326-2.341-2.021.045-.349.315-.246.507-.227,1.533.155,3.064.336,4.6.505.471.052.948.06,1.414.157C32.2,52.916,32.425,52.873,32.466,53.134Z" transform="translate(319 -130)" fill="#003c79"/>
      <path id="Path_157" data-name="Path 157" d="M29.58,68.145q-1.587-1.392-3.174-2.785c-.508-.449-1.005-.91-1.507-1.365,0-.308.225-.226.385-.2a4.928,4.928,0,0,1,.775.246c2.516.922,5.051,1.792,7.574,2.692a1.129,1.129,0,0,1,.581.292c0,.332.268.449.494.58,1.378.8,2.775,1.571,4.159,2.363,2.179,1.246,4.354,2.5,6.561,3.7a.452.452,0,0,1,.225.2,2.907,2.907,0,0,1-.621.421c-.657.4-1.319.792-1.979,1.186-.232.181-.414,0-.6-.1-1.758-.961-3.484-1.979-5.234-2.954-2.3-1.281-4.567-2.616-6.859-3.91C30.111,68.372,29.842,68.265,29.58,68.145Z" transform="translate(319 -130)" fill="#003774"/>
      <path id="Path_158" data-name="Path 158" d="M27.153,61.5a21.358,21.358,0,0,1,1.937-1.633,26.4,26.4,0,0,0,2.891,1.706c2.25,1.266,4.489,2.553,6.739,3.818,1.421.8,2.849,1.585,4.265,2.393a.489.489,0,0,0,.291.076c.112.009.175.1.25.161q2.137,1.854,4.271,3.71a2.126,2.126,0,0,1,.169.185c-.193.162-.391.059-.577,0-2.551-.871-5.081-1.805-7.629-2.688a.987.987,0,0,1-.479-.275.917.917,0,0,0-.52-.524q-3.162-1.8-6.331-3.582c-1.623-.918-3.253-1.825-4.867-2.758C27.356,61.967,27.018,61.885,27.153,61.5Z" transform="translate(319 -130)" fill="#00427e"/>
      <path id="Path_159" data-name="Path 159" d="M47.372,8.927c-.134.182-.3.115-.457.051-.488-.194-.981-.376-1.461-.587A28.261,28.261,0,0,0,40.823,6.9a28.888,28.888,0,0,0-2.935-.532c-.876-.123-1.748-.16-2.627-.2a10.08,10.08,0,0,0-1.466-.078c-1.277.129-2.561.093-3.84.271a33.607,33.607,0,0,0-6.1,1.458,22.629,22.629,0,0,0-2.589,1.052,7.478,7.478,0,0,1-1.185.486c.015-.124.025-.206.035-.288a17.047,17.047,0,0,1,1.942-1.359c1.278-.864,2.568-1.709,3.855-2.56.141-.093.288-.175.433-.263a1.632,1.632,0,0,0,.953-.028A35,35,0,0,1,33,4.19a32.485,32.485,0,0,1,7.236.6,1.146,1.146,0,0,0,.794-.025c.734.394,1.4.893,2.1,1.345,1.34.868,2.671,1.749,4,2.626A3.015,3.015,0,0,1,47.372,8.927Z" transform="translate(319 -130)" fill="#fff"/>
      <path id="Path_160" data-name="Path 160" d="M32.466,53.134a1.853,1.853,0,0,0-.977-.167c-.788-.071-1.571-.184-2.36-.247-.753-.06-1.5-.184-2.251-.27a8.449,8.449,0,0,1-1.1-.122.23.23,0,0,0-.26.116l-.3-.187L26.728,51.1c.257-.2.522-.381.768-.588.164-.138.275-.12.431.019.608.543,1.228,1.072,1.844,1.606.3.258.3.259.626.015.707-.529,1.418-1.052,2.115-1.594a.306.306,0,0,1,.474.02c.644.579,1.3,1.144,1.952,1.715.128.112.232.24.428.08.828-.674,1.665-1.337,2.513-2.016-.333-.392-.768-.615-1.065-.985.26-.231.484-.037.694.079,2.144,1.181,4.266,2.4,6.4,3.608.621.352,1.25.69,1.854,1.072.161.1.407.162.292.449a.187.187,0,0,1-.218-.017,13.226,13.226,0,0,1-1.708-.176c-.4-.054-.8-.088-1.207-.13-1.105-.115-2.211-.229-3.313-.382-.751-.1-1.509-.15-2.263-.234-.77-.085-1.538-.182-2.307-.281-.334-.043-.673-.066-1.006-.1A8.925,8.925,0,0,0,32.466,53.134Z" transform="translate(319 -130)" fill="#005388"/>
      <path id="Path_161" data-name="Path 161" d="M39.908,77.438q-2.771,1.723-5.542,3.444c-.288.179-.584.346-.876.519a.415.415,0,0,1-.475-.018c-.768-.432-1.544-.849-2.288-1.322-.144-.091-.357-.158-.319-.4.684-.863,1.361-1.73,2.052-2.587.978-1.214,1.965-2.42,2.948-3.629.183-.072.283.071.4.161,1.331,1.055,2.558,2.231,3.84,3.342C39.785,77.064,39.991,77.184,39.908,77.438Z" transform="translate(319 -130)" fill="#082d69"/>
      <path id="Path_162" data-name="Path 162" d="M27.855,54.467a.978.978,0,0,1,.627.158c1.288.749,2.581,1.487,3.869,2.234,1.156.671,2.308,1.351,3.464,2.021.791.458,1.589.9,2.38,1.361q2.045,1.18,4.087,2.365c.586.339,1.172.679,1.765,1.005a2.065,2.065,0,0,0,.435.129,5.631,5.631,0,0,1-.946.888c-.537.485-1.09.952-1.634,1.429-.11.1-.261.167-.264.348-.17.121-.291,0-.4-.1-1.094-.986-2.219-1.936-3.327-2.907q-2.2-1.925-4.4-3.837c-.678-.586-1.324-1.211-2.047-1.744.046-.218-.139-.291-.26-.4-.983-.858-1.969-1.712-2.952-2.57A1.486,1.486,0,0,1,27.855,54.467Z" transform="translate(319 -130)" fill="#005388"/>
      <path id="Path_163" data-name="Path 163" d="M41.035,4.766c.021.31-.177.341-.4.28a8.506,8.506,0,0,0-1.09-.222c-.684-.1-1.358-.235-2.051-.29a7.6,7.6,0,0,1-1.456-.157,2.506,2.506,0,0,0-.557-.026,4.96,4.96,0,0,1-1.364-.092.771.771,0,0,0-.354-.006c-.919.161-1.855.081-2.777.2a28.445,28.445,0,0,0-3.691.583c-.212.056-.434.029-.65.1-.177.062-.279-.072-.3-.25l4.945-3.328C32.007,1.08,32.732.6,33.446.114A.414.414,0,0,1,33.99.092q3.481,2.31,6.976,4.6A.433.433,0,0,1,41.035,4.766Z" transform="translate(319 -130)" fill="#fff"/>
      <path id="Path_164" data-name="Path 164" d="M31.461,57.821a.267.267,0,0,1,.275.037,15.451,15.451,0,0,1,1.193,1.026c.948.792,1.852,1.637,2.785,2.448,1.175,1.022,2.364,2.027,3.539,3.048.677.588,1.34,1.194,2.009,1.792.112.1.2.24.376.233.572.456,1.11.951,1.637,1.457-.152.142-.288.032-.418-.036-.54-.285-1.08-.571-1.614-.868-.726-.4-1.446-.817-2.168-1.227q-1.769-1-3.537-2.008-1.305-.74-2.613-1.475-1.752-.983-3.508-1.958a.529.529,0,0,1-.328-.421C29.847,59.147,30.655,58.486,31.461,57.821Z" transform="translate(319 -130)" fill="#00306c"/>
      <path id="Path_165" data-name="Path 165" d="M37.751,46.267c.038.371.364.481.614.627,1.3.756,2.622,1.487,3.932,2.233,1.368.779,2.716,1.6,4.1,2.34,1.2.641,2.333,1.379,3.542,2,.8.408,1.567.876,2.345,1.322a.622.622,0,0,1,.313.34,1.655,1.655,0,0,1-1.074.13c-.536-.056-1.075-.1-1.606-.187a5.824,5.824,0,0,1-1.334-.2,4.094,4.094,0,0,0-1.307-.859c-3.242-1.832-6.474-3.68-9.712-5.517a7.756,7.756,0,0,1-.931-.528c-.178-.137-.369-.278-.192-.544.363-.348.727-.7,1.088-1.046A.356.356,0,0,1,37.751,46.267Z" transform="translate(319 -130)" fill="#00427e"/>
      <path id="Path_166" data-name="Path 166" d="M39.908,77.438a1.552,1.552,0,0,0-.471-.524q-1.667-1.482-3.35-2.947c-.215-.188-.452-.352-.678-.528a1.779,1.779,0,0,0-.491-.507q-2.511-2.232-5.025-4.461a1.023,1.023,0,0,1-.313-.326,1.526,1.526,0,0,1,.993.335c1.386.783,2.774,1.564,4.144,2.375,1.6.95,3.261,1.8,4.855,2.769,1.057.641,2.152,1.218,3.234,1.817a.7.7,0,0,0,.247.032c-.015.1-.1.127-.171.169q-1.37.858-2.742,1.71A1.2,1.2,0,0,1,39.908,77.438Z" transform="translate(319 -130)" fill="#005287"/>
      <path id="Path_167" data-name="Path 167" d="M27.153,61.5c.011.3.285.375.473.483,1.19.683,2.4,1.337,3.591,2.014,1.385.785,2.761,1.586,4.146,2.371.943.535,1.9,1.05,2.843,1.582.354.2.7.415,1.044.629.109.068.193.157.047.277-.177.149-.353.055-.526-.007-1.34-.481-2.689-.936-4.038-1.392-.2-.068-.44-.1-.538-.337-.118-.14-.3-.148-.454-.2q-3.654-1.289-7.311-2.57-.6-.21-1.19-.432c-.136-.051-.261-.093-.343.078a.666.666,0,0,1-.342-.3Z" transform="translate(319 -130)" fill="#005187"/>
      <path id="Path_168" data-name="Path 168" d="M34.2,67.121c.843.286,1.686.569,2.527.86.715.248,1.429.5,2.141.761a1.077,1.077,0,0,0,.435.116,2.073,2.073,0,0,0,.636.293q3.029,1.073,6.063,2.13c.541.19,1.084.375,1.624.568a.862.862,0,0,0,.344.069l.427.273c-.94.566-1.81,1.168-2.74,1.675a8.955,8.955,0,0,1-1.759-.9c-.672-.355-1.323-.751-1.984-1.128q-1.784-1.018-3.569-2.034c-1.118-.633-2.242-1.257-3.36-1.891-.279-.158-.545-.34-.817-.51C33.974,67.29,34.043,67.2,34.2,67.121Z" transform="translate(319 -130)" fill="#052e6a"/>
      <path id="Path_169" data-name="Path 169" d="M59.317,52.527q0,1.636,0,3.271V61.41c0,.828,0,1.656-.014,2.485,0,.158.07.344-.107.466q.01-7.526.019-15.052.007-10.894,0-21.787a2.222,2.222,0,0,0-.046-.709c.237.161.114.4.127.61a1.311,1.311,0,0,0,.247.951,1.488,1.488,0,0,1,.243.662c.208.87.414,1.741.6,2.617a7.3,7.3,0,0,1,.135,1.155c.015.34.092.671.138,1a7.1,7.1,0,0,1,.072.959c0,.731,0,1.462,0,2.193a21.5,21.5,0,0,1-.177,2.782c-.169,1.312-.47,2.591-.762,3.874a1.89,1.89,0,0,1-.409.973c-.109.111-.08.254-.08.387,0,.68,0,1.36.007,2.04.262.4.112.841.15,1.263.016.182-.013.365-.011.548.029.381-.005.763.006,1.145-.018.379.09.774-.143,1.125Q59.316,51.813,59.317,52.527Z" transform="translate(319 -130)" fill="#fff"/>
      <path id="Path_170" data-name="Path 170" d="M30.409,79.657a7.853,7.853,0,0,0,1.432.924c.424.27.877.494,1.31.75a.785.785,0,0,0,.338.071.689.689,0,0,1-.279.214q-4.162,2.575-8.327,5.147c-.085.052-.172.1-.265.154-.066-.123.029-.168.073-.221q2.75-3.416,5.5-6.827C30.259,79.79,30.308,79.7,30.409,79.657Z" transform="translate(319 -130)" fill="#005488"/>
      <path id="Path_171" data-name="Path 171" d="M36.444,47.425a.4.4,0,0,0,.22.417c.4.22.788.464,1.186.689,1.372.775,2.757,1.527,4.115,2.324.933.548,1.885,1.063,2.82,1.61.816.477,1.635.957,2.478,1.392.436.225.852.488,1.274.74.109.065.2.155.05.276a13.429,13.429,0,0,1-1.945-.185c-.166-.023-.336-.016-.5-.023-.031-.037-.1-.038-.1-.1,0-.172-.139-.215-.255-.281Q42.891,52.637,40,50.992c-.853-.485-1.711-.961-2.569-1.437a.866.866,0,0,0-.62-.178c-.46-.317-.86-.7-1.305-1.071A8.887,8.887,0,0,1,36.444,47.425Z" transform="translate(319 -130)" fill="#00437f"/>
      <path id="Path_172" data-name="Path 172" d="M35.076,48.3q-1.1.941-2.2,1.882a.2.2,0,0,1-.307,0c-.75-.68-1.5-1.355-2.3-2.07l1.189-.941c.385-.306.773-.607,1.154-.919.138-.113.24-.139.385,0,.658.636,1.327,1.261,1.99,1.892A.736.736,0,0,1,35.076,48.3Z" transform="translate(319 -130)" fill="#005488"/>
      <path id="Path_173" data-name="Path 173" d="M30.065,48.3l-2.236,1.774a.19.19,0,0,1-.271.011c-.742-.612-1.487-1.222-2.268-1.863l1.316-1.184c.29-.261.584-.517.869-.783.127-.119.22-.176.379-.028.683.634,1.379,1.255,2.069,1.883A1.435,1.435,0,0,1,30.065,48.3Z" transform="translate(319 -130)" fill="#005488"/>
      <path id="Path_174" data-name="Path 174" d="M35.016,43.9c-.7.669-1.379,1.31-2.051,1.955a.185.185,0,0,1-.3,0q-1.015-.964-2.036-1.919c-.137-.128-.1-.221.013-.334q.9-.866,1.786-1.74c.1-.1.186-.126.3-.021C33.483,42.522,34.239,43.2,35.016,43.9Z" transform="translate(319 -130)" fill="#005488"/>
      <path id="Path_175" data-name="Path 175" d="M24.238,34.554,26,32.724,28.092,34.6,26.212,36.4Z" transform="translate(319 -130)" fill="#005488"/>
      <path id="Path_176" data-name="Path 176" d="M31.959,39.92l1.877-1.673,1.925,2.031c-.542.471-1.144.99-1.741,1.515-.161.142-.243.01-.333-.083q-.64-.658-1.275-1.32Z" transform="translate(319 -130)" fill="#005489"/>
      <path id="Path_177" data-name="Path 177" d="M16.494,41.563c.649.582,1.279,1.148,1.911,1.71.142.127.1.226-.019.337q-.755.724-1.5,1.454c-.12.118-.213.129-.341.006q-.828-.795-1.669-1.576c-.124-.115-.139-.206-.007-.333C15.4,42.643,15.933,42.116,16.494,41.563Z" transform="translate(319 -130)" fill="#005488"/>
      <path id="Path_178" data-name="Path 178" d="M21.356,49.037c.573-.529,1.1-1.008,1.615-1.5a.217.217,0,0,1,.345,0q.831.71,1.673,1.407c.151.125.176.226.02.364q-.762.673-1.516,1.356a.191.191,0,0,1-.3,0C22.6,50.139,22,49.613,21.356,49.037Z" transform="translate(319 -130)" fill="#005488"/>
      <path id="Path_179" data-name="Path 179" d="M20.179,39.315c-.032-.026-.087-.064-.135-.11-.482-.456-.96-.916-1.446-1.367-.156-.145-.182-.255-.014-.415.431-.41.854-.83,1.271-1.255.142-.145.241-.122.38.006.487.45.982.891,1.48,1.329.157.138.2.249.023.411-.459.43-.906.873-1.36,1.309A.214.214,0,0,1,20.179,39.315Z" transform="translate(319 -130)" fill="#005488"/>
      <path id="Path_180" data-name="Path 180" d="M30.757,40.526c-.519.463-.988.876-1.451,1.3a.247.247,0,0,1-.391.01c-.5-.452-1.014-.894-1.566-1.378l1.459-1.347c.093-.086.179-.057.268.017C29.619,39.58,30.166,40.033,30.757,40.526Z" transform="translate(319 -130)" fill="#005489"/>
      <path id="Path_181" data-name="Path 181" d="M30.326,44.736c-.526.47-1.02.909-1.511,1.352-.122.11-.212.048-.308-.036-.509-.449-1.02-.9-1.578-1.387.313-.291.6-.571.9-.832.228-.2.415-.563.7-.539.24.021.458.322.681.505C29.572,44.1,29.931,44.4,30.326,44.736Z" transform="translate(319 -130)" fill="#005489"/>
      <path id="Path_182" data-name="Path 182" d="M26.351,41.379c-.523.471-.99.889-1.454,1.311-.113.1-.2.079-.307-.014q-.685-.611-1.378-1.212c-.145-.126-.105-.221.016-.331.39-.354.781-.707,1.163-1.071.144-.137.249-.114.389.005C25.283,40.5,25.795,40.916,26.351,41.379Z" transform="translate(319 -130)" fill="#005489"/>
      <path id="Path_183" data-name="Path 183" d="M22.223,44.731c.451-.417.865-.794,1.272-1.179a.218.218,0,0,1,.347-.014c.487.42.983.829,1.5,1.265-.461.415-.894.795-1.314,1.187a.24.24,0,0,1-.387,0C23.19,45.582,22.73,45.181,22.223,44.731Z" transform="translate(319 -130)" fill="#005489"/>
      <path id="Path_184" data-name="Path 184" d="M17.518,31.63c-.367.38-.7.719-1.023,1.062a.2.2,0,0,1-.338.006q-.49-.48-1-.942c-.14-.128-.1-.22.016-.333.281-.27.561-.542.829-.824.139-.147.241-.127.379,0C16.753,30.948,17.135,31.283,17.518,31.63Z" transform="translate(319 -130)" fill="#005589"/>
      <path id="Path_185" data-name="Path 185" d="M21.137,46.321c-.374.358-.709.669-1.033.992-.134.133-.237.152-.381.011-.363-.354-.737-.7-1.151-1.087.368-.351.712-.675,1.051-1a.186.186,0,0,1,.3,0C20.31,45.583,20.7,45.93,21.137,46.321Z" transform="translate(319 -130)" fill="#005489"/>
      <path id="Path_186" data-name="Path 186" d="M22.754,34.94c-.022.066-.022.086-.033.1a4.824,4.824,0,0,1-1,.9A12.47,12.47,0,0,1,20.611,34.9c.3-.283.582-.544.855-.817a.2.2,0,0,1,.339-.006C22.112,34.368,22.429,34.647,22.754,34.94Z" transform="translate(319 -130)" fill="#005589"/>
      <path id="Path_187" data-name="Path 187" d="M26.945,37.8a.457.457,0,0,1-.064.13c-.263.261-.53.519-.8.778a.166.166,0,0,1-.262,0c-.281-.267-.562-.535-.848-.8-.108-.1-.122-.183-.009-.291.243-.233.482-.471.719-.711a.185.185,0,0,1,.3-.015c.284.264.576.52.862.781A.921.921,0,0,1,26.945,37.8Z" transform="translate(319 -130)" fill="#005589"/>
      <path id="Path_188" data-name="Path 188" d="M16.216,25.82c.31-.3.593-.566.863-.842.126-.128.216-.109.337,0,.257.243.523.479.791.71.141.121.18.224.021.366-.239.214-.469.437-.692.667-.142.147-.251.117-.382-.012C16.865,26.431,16.569,26.156,16.216,25.82Z" transform="translate(319 -130)" fill="#005589"/>
      <path id="Path_189" data-name="Path 189" d="M21.634,41.665c-.3.3-.592.578-.879.864a.185.185,0,0,1-.3.007c-.267-.26-.538-.517-.814-.767-.135-.123-.118-.221.009-.333.278-.247.489-.68.821-.722s.535.41.815.621A4.391,4.391,0,0,1,21.634,41.665Z" transform="translate(319 -130)" fill="#005589"/>
      <path id="Path_190" data-name="Path 190" d="M29.337,37.27c.276-.271.546-.525.8-.791.131-.135.234-.154.378-.014.254.246.521.481.79.711.159.136.132.238-.009.366-.237.215-.465.442-.694.666-.091.089-.179.16-.3.039A10.8,10.8,0,0,1,29.337,37.27Z" transform="translate(319 -130)" fill="#005589"/>
      <path id="Path_191" data-name="Path 191" d="M18.357,39.987c-.3.317-.574.6-.84.881a.2.2,0,0,1-.339.006c-.264-.263-.539-.515-.812-.769-.113-.1-.1-.193.006-.3.233-.222.462-.449.687-.679a.21.21,0,0,1,.344,0C17.712,39.416,18.03,39.694,18.357,39.987Z" transform="translate(319 -130)" fill="#005589"/>
      <path id="Path_192" data-name="Path 192" d="M25.512,31.109c-.307.335-.571.621-.833.909-.117.128-.22.119-.343,0-.3-.3-.609-.583-.948-.907.3-.293.574-.562.844-.84.123-.127.22-.114.343,0C24.887,30.556,25.206,30.835,25.512,31.109Z" transform="translate(319 -130)" fill="#005589"/>
      <path id="Path_193" data-name="Path 193" d="M14.962,37.386c.3-.3.569-.557.831-.822.109-.111.2-.159.338-.029.318.3.649.591.947.86-.3.325-.573.623-.845.921-.1.112-.194.1-.3,0C15.63,38.017,15.322,37.728,14.962,37.386Z" transform="translate(319 -130)" fill="#005589"/>
      <path id="Path_194" data-name="Path 194" d="M19.759,30.078a10.37,10.37,0,0,1-.916-.824c-.118-.105-.094-.191.011-.291.208-.2.413-.4.612-.606a.2.2,0,0,1,.34,0c.232.221.474.432.715.643.127.111.142.21.01.333C20.273,29.572,20.023,29.822,19.759,30.078Z" transform="translate(319 -130)" fill="#005589"/>
      <path id="Path_195" data-name="Path 195" d="M18.948,31.905c.311-.3.55-.51.774-.74.14-.143.25-.194.415-.026.213.216.448.412.679.609.154.131.143.239,0,.368-.253.223-.472.6-.75.646-.3.05-.493-.4-.76-.6Z" transform="translate(319 -130)" fill="#005589"/>
      <path id="Path_196" data-name="Path 196" d="M17.211,35.768a2.1,2.1,0,0,1-.22-.185c-.243-.275-.587-.452-.758-.8a5.567,5.567,0,0,1,.877-.876c.3.268.587.529.879.784.137.12.117.222-.005.336C17.726,35.272,17.473,35.518,17.211,35.768Z" transform="translate(319 -130)" fill="#005589"/>
      <path id="Path_285" data-name="Path 285" d="M59.315,48.852q0-.917,0-1.834c.312-.1.36-.4.447-.637a29.682,29.682,0,0,0,1.35-4.573,20.585,20.585,0,0,0,.352-2.4,29.209,29.209,0,0,0,.179-3.445c-.035-.825-.106-1.652-.169-2.476a23.946,23.946,0,0,0-.351-2.506,26.04,26.04,0,0,0-.675-2.6,26.742,26.742,0,0,0-2.226-5.349,30.69,30.69,0,0,0-2.572-3.833,26.628,26.628,0,0,0-3.066-3.327,26.184,26.184,0,0,0-3.576-2.751,30.564,30.564,0,0,0-3.52-1.94,24.626,24.626,0,0,0-4.1-1.513,26.756,26.756,0,0,0-3.066-.677,21.788,21.788,0,0,0-2.315-.269c-.863-.036-1.727-.1-2.59-.074a28.047,28.047,0,0,0-3.332.27,30.9,30.9,0,0,0-3.619.749,26.963,26.963,0,0,0-3.825,1.376A27.269,27.269,0,0,0,18.8,13.128c-.666.434-1.306.909-1.944,1.383A23.038,23.038,0,0,0,14.2,16.873,27.268,27.268,0,0,0,11.345,20.3a29.1,29.1,0,0,0-2.174,3.612,27.013,27.013,0,0,0-1.735,4.336A32.881,32.881,0,0,0,6.53,32.2a27.652,27.652,0,0,0-.277,5.778A22.786,22.786,0,0,0,6.6,40.941a34.484,34.484,0,0,0,.871,3.644,7.463,7.463,0,0,0,.688,1.906,2.817,2.817,0,0,1,.321,1.6c0,.221,0,.442-.006.663-.359.116-.438-.182-.531-.395a30.032,30.032,0,0,1-1.8-5.146,30.932,30.932,0,0,1-.785-5.589,28.614,28.614,0,0,1,9.036-22.183,27.988,27.988,0,0,1,9.419-5.862,29.384,29.384,0,0,1,8.849-1.817A28.75,28.75,0,0,1,46.211,10.5a27.877,27.877,0,0,1,6.429,4.2,27.477,27.477,0,0,1,5.017,5.674,28.8,28.8,0,0,1,4.382,10.683,31.1,31.1,0,0,1,.534,5.161,26.521,26.521,0,0,1-.42,4.866A29.585,29.585,0,0,1,60,48.135a2.709,2.709,0,0,1-.277.544C59.628,48.813,59.527,48.974,59.315,48.852Z" transform="translate(319 -130)" fill="#fff"/>
      <path id="Path_286" data-name="Path 286" d="M59.316,51.1q0-.564,0-1.127A28.742,28.742,0,0,0,62.5,39.964a27.818,27.818,0,0,0,.072-6.506,29.142,29.142,0,0,0-2.889-9.989,28.594,28.594,0,0,0-9.234-10.7A28.555,28.555,0,0,0,30.831,7.721,29.565,29.565,0,0,0,23,9.7a28.685,28.685,0,0,0-7.561,4.576A28.719,28.719,0,0,0,5.816,30.116,28.859,28.859,0,0,0,7.252,47.231c.372.9.794,1.768,1.218,2.639q0,.563,0,1.126c-.207-.018-.269-.2-.35-.339a13.129,13.129,0,0,1-.661-1.2,31.739,31.739,0,0,1-2.264-6.41c-.215-.939-.356-1.889-.509-2.838a16.138,16.138,0,0,1-.192-2.68c0-.3-.124-.594-.1-.906.106-1.364.1-2.732.29-4.1a30.5,30.5,0,0,1,1.281-5.576,29.469,29.469,0,0,1,3.729-7.434c.562-.807,1.182-1.565,1.806-2.323a31.731,31.731,0,0,1,2.775-2.842A26.353,26.353,0,0,1,16.967,12.2a33.561,33.561,0,0,1,3.876-2.326,19.2,19.2,0,0,1,2.332-1.009A27.491,27.491,0,0,1,27.3,7.593c.942-.192,1.888-.355,2.84-.5a37.188,37.188,0,0,1,5.638-.182,16.94,16.94,0,0,1,2.216.22c.768.1,1.533.24,2.294.388.5.1.989.223,1.476.36a35.862,35.862,0,0,1,4.292,1.574,28.4,28.4,0,0,1,4.432,2.469,26.262,26.262,0,0,1,2.954,2.314c.574.507,1.131,1.029,1.655,1.581a30.832,30.832,0,0,1,3.228,3.974,29.389,29.389,0,0,1,1.97,3.319,25.178,25.178,0,0,1,1.96,5.065c.153.607.376,1.194.479,1.814.138.832.316,1.658.442,2.492a31.66,31.66,0,0,1,.189,5.738,24.742,24.742,0,0,1-.347,2.962A29.068,29.068,0,0,1,61.8,46a26.514,26.514,0,0,1-2.153,4.824C59.568,50.961,59.5,51.09,59.316,51.1Z" transform="translate(319 -130)" fill="#fff"/>
      <path id="Path_287" data-name="Path 287" d="M8.47,49.87a.835.835,0,0,1-.356-.418A29.646,29.646,0,0,1,6.2,44.64a32.768,32.768,0,0,1-.849-3.753c-.131-.761-.2-1.539-.263-2.314-.088-1.02-.067-2.034-.068-3.05a23.139,23.139,0,0,1,.271-3.228c.152-1.091.382-2.162.641-3.228A27.336,27.336,0,0,1,7.61,24.334a29.622,29.622,0,0,1,2.616-4.588A21.978,21.978,0,0,1,12.513,16.9c.361-.376.716-.76,1.057-1.155a13.28,13.28,0,0,1,1.318-1.195,24.734,24.734,0,0,1,1.981-1.582q1.2-.858,2.468-1.61c.849-.5,1.719-.953,2.6-1.378.594-.285,1.219-.511,1.839-.738A26.5,26.5,0,0,1,26.729,8.3c1-.237,2.009-.441,3.03-.589.751-.109,1.516-.107,2.259-.284a1.8,1.8,0,0,1,.407-.011c.9,0,1.8.007,2.7,0a16.087,16.087,0,0,1,1.813.175c.589.06,1.172.139,1.757.225a24.183,24.183,0,0,1,3.652.842A29.688,29.688,0,0,1,51.444,13.3a28.087,28.087,0,0,1,4.1,3.8A26.124,26.124,0,0,1,58.5,21.093a30.049,30.049,0,0,1,1.561,2.857,26.681,26.681,0,0,1,1.791,4.856c.208.836.429,1.671.56,2.521.1.649.206,1.3.278,1.954a8.4,8.4,0,0,0,.165,1.611.88.88,0,0,1,.016.253,37.75,37.75,0,0,1-.181,4.21,31.822,31.822,0,0,1-.842,4.578,22.072,22.072,0,0,1-1.386,3.925c-.241.5-.455,1.022-.674,1.536a1.185,1.185,0,0,1-.479.577q0-.56,0-1.119c.238-.007.3-.2.376-.366.409-.858.741-1.747,1.07-2.638a26.056,26.056,0,0,0,1.413-6.009c.074-.892.1-1.793.218-2.676a15.52,15.52,0,0,0-.116-2.975,13.686,13.686,0,0,0-.109-1.416c-.071-.432-.111-.869-.195-1.3-.2-1.045-.42-2.086-.725-3.108a25.431,25.431,0,0,0-.9-2.54c-.327-.782-.615-1.58-1.019-2.33a31.958,31.958,0,0,0-2.757-4.383,28.468,28.468,0,0,0-2.889-3.274c-.735-.7-1.521-1.345-2.311-1.983a28.972,28.972,0,0,0-2.766-1.891c-.343-.217-.693-.427-1.05-.621a29.125,29.125,0,0,0-4.712-2.023,34.454,34.454,0,0,0-4.075-1.055,18.517,18.517,0,0,0-2.008-.257,22.05,22.05,0,0,0-3.036-.159c-1.143.056-2.291.076-3.436.244-1.393.2-2.756.506-4.118.842-.465.114-.884.344-1.345.462a16.392,16.392,0,0,0-3.164,1.242,25.066,25.066,0,0,0-2.586,1.405c-.925.6-1.839,1.21-2.709,1.886-.294.228-.591.453-.867.7-.759.679-1.5,1.377-2.215,2.1a25.775,25.775,0,0,0-2.519,3.052,30.76,30.76,0,0,0-2.248,3.747,26.876,26.876,0,0,0-2.228,5.933,25.251,25.251,0,0,0-.589,3.182,17.853,17.853,0,0,0-.19,2.527c.008.372-.138.73-.1,1.11.117,1.244.123,2.493.283,3.739a29.109,29.109,0,0,0,1.482,6.1c.267.75.588,1.48.9,2.215.075.181.134.4.4.412Q8.47,49.31,8.47,49.87Z" transform="translate(319 -130)" fill="#fff"/>
      <path id="Path_288" data-name="Path 288" d="M46.034,54.564l.1.1c-.113,0-.231.018-.306-.1Z" transform="translate(319 -130)" fill="#00427e"/>
    </g>
    <g id="Group_18" data-name="Group 18">
      <g id="Group_17" data-name="Group 17" transform="translate(0 -2)">
        <text id="بوابة_المساندة" data-name="بوابة المساندة" transform="translate(401 -98)" fill="#fff" font-size="38" font-family="AraAssaf-Regular, Assaf Font"><tspan x="0" y="0">بوابة المساندة</tspan></text>
        <text id="Support_Gate" data-name="Support Gate" transform="translate(419 -68)" fill="#fff" font-size="38" font-family="AraAssaf-Regular, Assaf Font"><tspan x="0" y="0">Support Gate</tspan></text>
      </g>
      <g id="Group_16" data-name="Group 16" transform="translate(0 -11)">
        <rect id="Rectangle_9" data-name="Rectangle 9" width="188" height="19" transform="translate(401 -50)" fill="#0084c8"/>
        <text id="For_Logistics_CO_LTD_الخدمات_اللوجستية" data-name="For Logistics CO LTD الخدمات اللوجستية" transform="translate(404 -37)" fill="#fff" font-size="10" font-family="SegoeUI-Semibold, Segoe UI" font-weight="600"><tspan x="0" y="0">For</tspan><tspan y="0" font-family="GESSTwoMedium-Medium, GE SS Two" font-weight="500"> </tspan><tspan y="0">Logistics</tspan><tspan y="0" font-family="GESSTwoMedium-Medium, GE SS Two" font-weight="500"> </tspan><tspan y="0">CO</tspan><tspan y="0" font-family="GESSTwoMedium-Medium, GE SS Two" font-weight="500"> </tspan><tspan y="0">LTD</tspan><tspan y="0" font-family="GESSTwoMedium-Medium, GE SS Two" font-weight="500"> </tspan><tspan y="0" font-family="GESSTwoMedium-Medium, GE SS Two" font-weight="500">الخدمات اللوجستية</tspan></text>
      </g>
    </g>
  </g>
</svg>
